<svg width="164" height="34" viewBox="0 0 164 34" fill="none" xmlns="http://www.w3.org/2000/svg">
<path d="M12.8646 33.5601C10.4938 33.5601 8.36934 33.0213 6.49121 31.9437C4.64386 30.8353 3.19677 29.3266 2.14994 27.4177C1.10311 25.5087 0.579695 23.3227 0.579695 20.8596V0.908243H2.88888V20.4439C2.88888 22.5376 3.31993 24.4003 4.18202 26.0322C5.04412 27.664 6.2295 28.9417 7.73816 29.8654C9.24683 30.7891 10.9556 31.2509 12.8646 31.2509C14.8658 31.2509 16.6362 30.7891 18.1757 29.8654C19.7151 28.9417 20.9159 27.664 21.778 26.0322C22.6709 24.4003 23.1173 22.5376 23.1173 20.4439V0.908243H25.3803V20.8596C25.3803 23.3227 24.8415 25.5087 23.7639 27.4177C22.6863 29.3266 21.2084 30.8353 19.3303 31.9437C17.4521 33.0213 15.2969 33.5601 12.8646 33.5601ZM35.3528 33.2368V0.908243H37.5696L50.5472 22.0142H49.5773L62.7397 0.908243H64.7256V33.2368H62.4164V17.0263C62.4164 14.2553 62.4318 11.7614 62.4626 9.54459C62.5242 7.32777 62.6473 5.12635 62.832 2.94033L63.5248 3.81782L50.9167 23.7692H48.9769L36.7844 4.09492L37.2463 2.94033C37.431 5.0032 37.5388 7.12764 37.5696 9.31367C37.6311 11.4689 37.6619 14.0398 37.6619 17.0263V33.2368H35.3528ZM69.647 33.2368L82.4399 0.908243H89.0904L101.791 33.2368H93.8473L87.751 16.8416C87.5047 16.195 87.2584 15.5023 87.0121 14.7633C86.7658 14.0244 86.5195 13.2701 86.2731 12.5003C86.0268 11.6998 85.7805 10.9301 85.5342 10.1912C85.3187 9.42143 85.1339 8.71328 84.98 8.06671L86.3655 8.02053C86.1808 8.79026 85.9653 9.54459 85.7189 10.2835C85.5034 11.0225 85.2725 11.7614 85.0262 12.5003C84.8107 13.2085 84.5644 13.932 84.2872 14.671C84.0101 15.3791 83.7484 16.1181 83.5021 16.8878L77.4059 33.2368H69.647ZM75.7433 27.0482L78.191 21.1367H93.0621L95.4637 27.0482H75.7433ZM106.748 33.2368V0.908243H108.965L121.942 22.0142H120.973L134.135 0.908243H136.121V33.2368H133.812V17.0263C133.812 14.2553 133.827 11.7614 133.858 9.54459C133.919 7.32777 134.043 5.12635 134.227 2.94033L134.92 3.81782L122.312 23.7692H120.372L108.18 4.09492L108.642 2.94033C108.826 5.0032 108.934 7.12764 108.965 9.31367C109.026 11.4689 109.057 14.0398 109.057 17.0263V33.2368H106.748ZM144.506 33.2368V26.6326H149.956V7.51251H144.506V0.908243H163.303V7.51251H157.807V26.6326H163.303V33.2368H144.506Z" fill="#373737"/>
</svg>
