<svg width="33" height="33" viewBox="0 0 33 33" fill="none" xmlns="http://www.w3.org/2000/svg">
<g clip-path="url(#clip0_2_300)">
<path fill-rule="evenodd" clip-rule="evenodd" d="M14.5395 0.5C18.5554 0.5 22.1889 2.11133 24.8191 4.71631C27.4494 7.32129 29.0763 10.9226 29.0763 14.8972C29.0763 17.8057 28.2059 20.5127 26.7064 22.7793L32.9973 29.571L28.6588 33.5L22.5929 26.8882C20.2089 28.4644 17.4059 29.3037 14.5395 29.2998C10.5237 29.2998 6.89014 27.6885 4.2599 25.0835C1.62695 22.4731 0 18.8745 0 14.8999C0 10.9226 1.62695 7.32397 4.25719 4.71631C6.89014 2.11133 10.5237 0.5 14.5395 0.5ZM23.6721 5.85229C21.3348 3.53735 18.1053 2.10596 14.5395 2.10596C10.9738 2.10596 7.74429 3.53735 5.4069 5.85229C3.0668 8.16724 1.62153 11.3657 1.62153 14.8999C1.62153 18.4314 3.0668 21.6299 5.40419 23.9448C7.74158 26.2598 10.9711 27.6912 14.5368 27.6912C18.1053 27.6912 21.332 26.2598 23.6694 23.9448C26.0068 21.6299 27.4521 18.4314 27.4521 14.8999C27.4548 11.3657 26.0095 8.16724 23.6721 5.85229Z" fill="black"/>
</g>
<defs>
<clipPath id="clip0_2_300">
<rect width="33" height="33" fill="white"/>
</clipPath>
</defs>
</svg>
